<?xml version="1.0" encoding="iso-8859-1"?>
<!-- Generator: Adobe Illustrator 16.0.0, SVG Export Plug-In . SVG Version: 6.00 Build 0)  -->
<!DOCTYPE svg PUBLIC "-//W3C//DTD SVG 1.1//EN" "http://www.w3.org/Graphics/SVG/1.1/DTD/svg11.dtd">
<svg version="1.1" id="Capa_1" xmlns="http://www.w3.org/2000/svg" xmlns:xlink="http://www.w3.org/1999/xlink" x="0px" y="0px"
	 width="516.563px" height="516.562px" viewBox="0 0 516.563 516.562" style="enable-background:new 0 0 516.563 516.562;"
	 xml:space="preserve">
<g>
	<path d="M414.119,340.246v-30.405h77.029v114.173c0,22.39-18.146,40.547-40.536,40.547H64.143
		c-22.381,0-40.539-18.157-40.539-40.547V309.841h71.615v30.405h-6.422v33.773H116.5v-33.773h-7.096v-30.405h290.523v30.405h-6.555
		v33.773h27.697v-33.773H414.119z M266.187,185.18h-17.62v36.801h-36.794v17.62h36.794v36.797h17.62V239.6h36.798v-17.62h-36.798
		V185.18z M109.404,301.052H95.212v8.789h14.192V301.052z M399.927,309.841h14.191v-8.789h-14.191V309.841z M95.218,364.568h14.192
		v-24.322H95.218V364.568z M414.119,364.568v-24.322h-14.191v24.322H414.119z M513.077,164.244l-0.407,0.963l-21.521,40.92v94.924
		h-77.029v-41.884h-14.191v41.884H109.404v-41.884H95.212v41.884H23.604v-76.548l-2.131,0.786
		c-1.814-4.915-43.911-120.786-5.077-160.258c14.96-15.2,39.094-17.112,71.748-5.68c30.849,10.799,53.451,19.884,71.609,27.184
		c47.041,18.914,64.64,25.978,124.224,22.65c6.377-0.358,17.419-1.939,31.386-3.937c60.414-8.653,161.535-23.132,192.171,13.208
		C517.286,130.012,519.147,145.421,513.077,164.244z M311.419,230.787c0-29.853-24.192-54.057-54.045-54.057
		s-54.057,24.204-54.057,54.057s24.205,54.057,54.057,54.057S311.419,260.646,311.419,230.787z M498.241,126.288
		c-26.291-31.188-127.028-16.76-181.147-9.005c-14.262,2.045-25.528,3.656-32.432,4.043c-62.273,3.5-81.944-4.413-129.443-23.507
		c-18.037-7.258-40.5-16.284-71.095-26.988c-27.825-9.741-47.688-8.825-59.048,2.722C3.75,95.221,12.944,152,23.604,191.463v-13.376
		c0-22.39-6.167-40.533,16.222-40.533h433.082c22.39,0,18.24,18.149,18.24,40.533v1.918l10.51-19.973
		C506.245,145.489,505.122,134.454,498.241,126.288z"/>
</g>
<g>
</g>
<g>
</g>
<g>
</g>
<g>
</g>
<g>
</g>
<g>
</g>
<g>
</g>
<g>
</g>
<g>
</g>
<g>
</g>
<g>
</g>
<g>
</g>
<g>
</g>
<g>
</g>
<g>
</g>
</svg>
